<svg xmlns="http://www.w3.org/2000/svg" viewBox="0 0 90 90">
<circle cx="45" cy="45" r="45" fill="#F3EEF9"/>
<path d="M15,85 Q15,68 30,64 L45,70 L60,64 Q75,68 75,85" fill="#3A1A6A"/>
<rect x="38" y="60" width="14" height="12" fill="#D4A980"/>
<polygon points="45,68 38,78 33,78 32,70 38,64" fill="#4A2A7A"/>
<polygon points="45,68 52,78 57,78 58,70 52,64" fill="#4A2A7A"/>
<rect x="40" y="68" width="10" height="10" fill="#FAFAF7"/>
<ellipse cx="45" cy="46" rx="20" ry="22" fill="#D4A980"/>
<path d="M25,46 Q24,26 45,22 Q66,26 65,46" fill="#2A1A0A"/>
<ellipse cx="45" cy="25" rx="20" ry="8" fill="#2A1A0A"/>
<ellipse cx="26" cy="44" rx="5" ry="8" fill="#2A1A0A"/>
<ellipse cx="64" cy="44" rx="5" ry="8" fill="#2A1A0A"/>
<ellipse cx="37" cy="47" rx="4" ry="3" fill="#FAFAF7"/>
<circle cx="37" cy="47" r="2" fill="#1A1A1A"/>
<ellipse cx="53" cy="47" rx="4" ry="3" fill="#FAFAF7"/>
<circle cx="53" cy="47" r="2" fill="#1A1A1A"/>
<rect x="32" y="41" width="10" height="2" rx="1" fill="#2A1A0A"/>
<rect x="47" y="41" width="10" height="2" rx="1" fill="#2A1A0A"/>
<path d="M45,52 Q43,57 45,59 Q47,57 45,52" stroke="#C49A70" stroke-width="0.8" fill="none"/>
<path d="M38,63 Q45,67 52,63" stroke="#C49A70" stroke-width="1.2" fill="none" stroke-linecap="round"/>
<circle cx="80" cy="12" r="10" fill="#6A3AAA"/>
<text x="80" y="16" text-anchor="middle" font-size="10" font-weight="700" fill="#FAFAF7" font-family="system-ui">Á</text>
</svg>
