<svg xmlns="http://www.w3.org/2000/svg" viewBox="0 0 90 90">
<circle cx="45" cy="45" r="45" fill="#EAF5EE"/>
<path d="M15,85 Q15,68 30,64 L45,70 L60,64 Q75,68 75,85" fill="#1A3A20"/>
<rect x="38" y="60" width="14" height="12" fill="#C49A70"/>
<ellipse cx="45" cy="46" rx="22" ry="23" fill="#C49A70"/>
<path d="M23,43 Q24,26 45,23 Q66,26 67,43" fill="#2A1A0A"/>
<path d="M25,52 Q25,70 45,73 Q65,70 65,52" fill="#3A2A1A" opacity="0.5"/>
<ellipse cx="45" cy="70" rx="16" ry="5" fill="#3A2A1A" opacity="0.6"/>
<ellipse cx="37" cy="46" rx="4" ry="3.5" fill="#FAFAF7"/>
<circle cx="37" cy="46" r="2.2" fill="#1A1A1A"/>
<ellipse cx="53" cy="46" rx="4" ry="3.5" fill="#FAFAF7"/>
<circle cx="53" cy="46" r="2.2" fill="#1A1A1A"/>
<rect x="32" y="40" width="11" height="2.5" rx="1.5" fill="#2A1A0A"/>
<rect x="47" y="40" width="11" height="2.5" rx="1.5" fill="#2A1A0A"/>
<ellipse cx="45" cy="53" rx="4" ry="2.5" fill="#AA7A50"/>
<path d="M37,60 Q45,65 53,60" stroke="#AA7A50" stroke-width="1.5" fill="none" stroke-linecap="round"/>
<circle cx="80" cy="12" r="10" fill="#1A7A4A"/>
<text x="80" y="16" text-anchor="middle" font-size="10" font-weight="700" fill="#FAFAF7" font-family="system-ui">D</text>
</svg>
