<svg xmlns="http://www.w3.org/2000/svg" viewBox="0 0 90 90">
<circle cx="45" cy="45" r="45" fill="#FBF3E5"/>
<path d="M15,85 Q15,68 30,64 L45,70 L60,64 Q75,68 75,85" fill="#2A2A2A"/>
<rect x="38" y="60" width="14" height="12" fill="#D4A980"/>
<polygon points="45,68 38,78 32,78 30,70 38,64" fill="#3A3A3A"/>
<polygon points="45,68 52,78 58,78 60,70 52,64" fill="#3A3A3A"/>
<rect x="39" y="68" width="12" height="10" fill="#FAFAF7"/>
<ellipse cx="45" cy="46" rx="20" ry="22" fill="#D4A980"/>
<path d="M25,44 Q26,26 45,23 Q64,26 65,44" fill="#8A8A8A"/>
<ellipse cx="45" cy="26" rx="20" ry="7" fill="#8A8A8A"/>
<ellipse cx="37" cy="47" rx="4" ry="3" fill="#FAFAF7"/>
<circle cx="37" cy="47" r="2" fill="#3A2A1A"/>
<ellipse cx="53" cy="47" rx="4" ry="3" fill="#FAFAF7"/>
<circle cx="53" cy="47" r="2" fill="#3A2A1A"/>
<rect x="32" y="41" width="10" height="2" rx="1" fill="#8A8A8A"/>
<rect x="47" y="41" width="10" height="2" rx="1" fill="#8A8A8A"/>
<path d="M45,52 Q43,57 45,59 Q47,57 45,52" stroke="#C49A70" stroke-width="0.8" fill="none"/>
<path d="M37,62 Q45,67 53,62" stroke="#C49A70" stroke-width="1.5" fill="none" stroke-linecap="round"/>
<circle cx="80" cy="12" r="10" fill="#A07830"/>
<text x="80" y="16" text-anchor="middle" font-size="10" font-weight="700" fill="#FAFAF7" font-family="system-ui">G</text>
</svg>
