<svg xmlns="http://www.w3.org/2000/svg" viewBox="0 0 90 90">
<circle cx="45" cy="45" r="45" fill="#FAF0EA"/>
<path d="M15,85 Q15,68 30,64 L45,70 L60,64 Q75,68 75,85" fill="#AA5A2A"/>
<rect x="38" y="60" width="14" height="12" fill="#C49A70"/>
<path d="M28,74 Q45,72 62,74 Q62,82 45,82 Q28,82 28,74" fill="#8A4A20"/>
<ellipse cx="45" cy="46" rx="21" ry="23" fill="#C49A70"/>
<path d="M24,42 Q24,26 45,22 Q66,26 66,42" fill="#1A1A1A"/>
<ellipse cx="45" cy="25" rx="21" ry="8" fill="#1A1A1A"/>
<ellipse cx="37" cy="47" rx="4.5" ry="3" fill="#FAFAF7"/>
<circle cx="37" cy="47" r="2.2" fill="#1A1A1A"/>
<ellipse cx="53" cy="47" rx="4.5" ry="3" fill="#FAFAF7"/>
<circle cx="53" cy="47" r="2.2" fill="#1A1A1A"/>
<path d="M32,41 Q37,39 42,41" stroke="#1A1A1A" stroke-width="2" fill="none" stroke-linecap="round"/>
<path d="M48,41 Q53,39 58,41" stroke="#1A1A1A" stroke-width="2" fill="none" stroke-linecap="round"/>
<ellipse cx="45" cy="53" rx="3.5" ry="2" fill="#AA7A50"/>
<path d="M37,60 Q45,65 53,60" stroke="#AA7A50" stroke-width="1.5" fill="none" stroke-linecap="round"/>
<circle cx="80" cy="12" r="10" fill="#AA5A2A"/>
<text x="80" y="16" text-anchor="middle" font-size="10" font-weight="700" fill="#FAFAF7" font-family="system-ui">J</text>
</svg>
