<svg xmlns="http://www.w3.org/2000/svg" viewBox="0 0 90 90">
<circle cx="45" cy="45" r="45" fill="#EEF2FC"/>
<path d="M15,85 Q15,68 30,64 L45,70 L60,64 Q75,68 75,85" fill="#1A3060"/>
<rect x="38" y="60" width="14" height="12" fill="#D4A980"/>
<path d="M38,62 Q45,66 52,62" fill="#1A3060"/>
<ellipse cx="45" cy="46" rx="19" ry="22" fill="#D4A980"/>
<path d="M26,42 Q26,26 45,23 Q64,26 64,42" fill="#2A1A0A"/>
<ellipse cx="45" cy="26" rx="19" ry="7" fill="#2A1A0A"/>
<rect x="32" y="44" width="13" height="9" rx="2" fill="none" stroke="#2A5AAA" stroke-width="1.8"/>
<rect x="49" y="44" width="13" height="9" rx="2" fill="none" stroke="#2A5AAA" stroke-width="1.8"/>
<line x1="45" y1="48" x2="49" y2="48" stroke="#2A5AAA" stroke-width="1.5"/>
<line x1="26" y1="48" x2="32" y2="48" stroke="#2A5AAA" stroke-width="1.2"/>
<line x1="62" y1="48" x2="68" y2="48" stroke="#2A5AAA" stroke-width="1.2"/>
<circle cx="38" cy="48" r="2" fill="#1A1A1A"/>
<circle cx="55" cy="48" r="2" fill="#1A1A1A"/>
<rect x="33" y="41" width="9" height="2" rx="1" fill="#2A1A0A"/>
<rect x="50" y="41" width="9" height="2" rx="1" fill="#2A1A0A"/>
<path d="M45,52 Q43,57 45,59 Q47,57 45,52" stroke="#C49A70" stroke-width="0.8" fill="none"/>
<path d="M38,64 Q45,66 52,64" stroke="#C49A70" stroke-width="1.2" fill="none" stroke-linecap="round"/>
<circle cx="80" cy="12" r="10" fill="#2A5AAA"/>
<text x="80" y="16" text-anchor="middle" font-size="10" font-weight="700" fill="#FAFAF7" font-family="system-ui">M</text>
</svg>
